#!OML:ASF C:\ViconDB\ViconDB\414\Spring2016\041811\Spring2016.ASF
:FULLY-SPECIFIED
:DEGREES
185
root 9.54341 17.9577 -10.4524 -180.074 2.75099 -176.126
lowerback 2.76604 3.19367 0.299178
upperback 2.66171 4.37269 0.695972
thorax 1.14988 2.23324 0.471177
lowerneck -10.2206 -4.97151 -10.968
upperneck 13.8 -7.81871 14.4315
head 6.88176 -3.4824 5.76563
rclavicle 9.29318e-015 1.98785e-015
rhumerus -33.1776 -5.31802 -84.2671
rradius 43.0021
rwrist 28.8842
rhand -35.5665 -14.9092
rfingers 7.12502
rthumb -8.69151 -44.7103
lclavicle 9.29318e-015 1.98785e-015
lhumerus -44.1314 -2.71618 89.9133
lradius 30.6766
lwrist -25.6128
lhand -27.539 16.7068
lfingers 7.12502
lthumb -0.940662 46.6845
rfemur 18.6659 -9.45926 20.6821
rtibia 18.7919
rfoot -156.517 9.55171
rtoes -6.6784
lfemur -27.9599 -2.54325 -10.9654
ltibia 31.8873
lfoot -6.47395 3.73084
ltoes -7.05438
186
root 9.50273 18.0022 -10.6717 -179.98 2.46099 -176.341
lowerback 2.61271 3.11577 0.0425552
upperback 2.55193 4.25439 0.550081
thorax 1.11592 2.16689 0.471746
lowerneck -10.2475 -4.97302 -10.7403
upperneck 13.9992 -7.89417 14.3894
head 6.949 -3.51348 5.70581
rclavicle -1.98785e-014 1.98785e-015
rhumerus -33.9576 -6.27923 -84.1411
rradius 42.8641
rwrist 29.1937
rhand -35.4456 -15.0002
rfingers 7.12502
rthumb -8.57484 -44.8061
lclavicle -1.98785e-014 1.98785e-015
lhumerus -43.8218 -2.9011 90.0023
lradius 30.4225
lwrist -25.1149
lhand -28.0517 16.5327
lfingers 7.12502
lthumb -1.43582 46.5076
rfemur 16.7307 -9.78956 20.0789
rtibia 22.8492
rfoot -155.486 8.89986
rtoes -7.54904
lfemur -27.3059 -2.41741 -11.5843
ltibia 31.6757
lfoot -6.4188 3.11567
ltoes -7.17939
187
root 9.46244 18.0536 -10.8904 -179.871 2.14684 -176.51
lowerback 2.46393 3.01314 -0.184078
upperback 2.44465 4.10536 0.431379
thorax 1.08284 2.08616 0.483595
lowerneck -10.2626 -4.96578 -10.7767
upperneck 14.1267 -7.96621 14.6522
head 7.01449 -3.53899 5.79462
rclavicle 5.40694e-014 8.34896e-015
rhumerus -34.7201 -7.29241 -83.9865
rradius 42.6985
rwrist 29.4394
rhand -35.3191 -14.9508
rfingers 7.12502
rthumb -8.45276 -44.7617
lclavicle 5.40694e-014 8.34896e-015
lhumerus -43.5311 -3.16852 90.085
lradius 30.0268
lwrist -25.3896
lhand -28.4619 16.8098
lfingers 7.12502
lthumb -1.83206 46.7817
rfemur 14.6846 -10.1652 19.5621
rtibia 26.9814
rfoot -154.356 7.8272
rtoes -7.96837
lfemur -26.5084 -2.50243 -12.0705
ltibia 31.2842
lfoot -6.65307 2.96038
ltoes -7.40386
188
root 9.42605 18.1041 -11.1072 -179.785 1.92625 -176.501
lowerback 2.3133 2.89979 -0.312503
upperback 2.36205 3.94582 0.404668
thorax 1.07692 2.00194 0.535754
lowerneck -10.3201 -4.93541 -10.6759
upperneck 14.3249 -7.98154 14.6651
head 7.0861 -3.54156 5.78178
rclavicle -1.53561e-014 -1.63003e-014
rhumerus -35.4406 -7.89345 -83.8417
rradius 42.464
rwrist 29.5057
rhand -35.3831 -14.9483
rfingers 7.12502
rthumb -8.51452 -44.7566
lclavicle -1.53561e-014 -1.63003e-014
lhumerus -43.0785 -2.90815 89.9762
lradius 29.5082
lwrist -25.8879
lhand -28.5144 17.1123
lfingers 7.12502
lthumb -1.88269 47.0837
rfemur 12.5194 -10.5052 19.2552
rtibia 31.1771
rfoot -153.001 6.28794
rtoes -9.88182
lfemur -25.5853 -2.83042 -12.2685
ltibia 30.7716
lfoot -7.08374 3.14196
ltoes -7.88861
189
root 9.38274 18.1474 -11.3225 -179.726 1.63076 -176.603
lowerback 2.10764 2.778 -0.45491
upperback 2.34262 3.77866 0.370973
thorax 1.16692 1.91465 0.593576
lowerneck -10.3838 -4.95018 -10.6347
upperneck 14.4774 -8.03405 14.6627
head 7.15149 -3.56381 5.76911
rclavicle 9.44227e-016 -7.15625e-015
rhumerus -36.0809 -8.62317 -83.6641
rradius 42.2008
rwrist 29.3927
rhand -35.4796 -14.9767
rfingers 7.12502
rthumb -8.60765 -44.7812
lclavicle 9.44227e-016 -7.15625e-015
lhumerus -42.6679 -2.94938 90.1307
lradius 29.3071
lwrist -25.7504
lhand -28.2465 17.7424
lfingers 7.12502
lthumb -1.62395 47.716
rfemur 10.3216 -11.0831 18.7275
rtibia 35.4467
rfoot -151.447 4.61655
rtoes -12.0867
lfemur -24.5985 -3.06511 -12.6721
ltibia 30.1484
lfoot -7.41508 2.99412
ltoes -8.01592
190
root 9.33956 18.1916 -11.5351 -179.655 1.46697 -176.693
lowerback 1.93596 2.67364 -0.641126
upperback 2.34752 3.63604 0.430985
thorax 1.25451 1.83891 0.769235
lowerneck -10.6271 -4.99026 -10.8032
upperneck 14.754 -8.08099 14.6747
head 7.2975 -3.58162 5.79779
rclavicle -2.31087e-014 -7.95139e-015
rhumerus -36.6488 -9.23868 -83.3061
rradius 41.9219
rwrist 29.7442
rhand -35.394 -15.0493
rfingers 7.12502
rthumb -8.52499 -44.8572
lclavicle -2.31087e-014 -7.95139e-015
lhumerus -42.0835 -2.81393 90.3419
lradius 28.9326
lwrist -25.8648
lhand -27.8106 18.1951
lfingers 7.12502
lthumb -1.20296 48.1714
rfemur 8.00516 -11.4857 18.2547
rtibia 39.7384
rfoot -150.339 3.00795
rtoes -13.5473
lfemur -23.5155 -3.44832 -13.0234
ltibia 29.4383
lfoot -7.83534 2.99679
ltoes -7.93969
191
root 9.29457 18.2355 -11.7425 -179.664 1.35284 -176.887
lowerback 2.02681 2.58214 -0.8476
upperback 2.19179 3.50351 0.329392
thorax 1.0403 1.76879 0.77184
lowerneck -10.4767 -4.92429 -10.6684
upperneck 14.9515 -8.09001 14.7093
head 7.32995 -3.59131 5.79038
rclavicle 3.54831e-014 -1.31198e-014
rhumerus -37.459 -10.17 -83.032
rradius 41.5816
rwrist 30.2646
rhand -35.2329 -15.0489
rfingers 7.12502
rthumb -8.36949 -44.863
lclavicle 3.54831e-014 -1.31198e-014
lhumerus -41.87 -2.92505 90.3667
lradius 28.6968
lwrist -25.9937
lhand -28.2723 17.5003
lfingers 7.12502
lthumb -1.64889 47.4737
rfemur 5.72352 -11.8796 17.6499
rtibia 44.0983
rfoot -149.684 1.73023
rtoes -13.6969
lfemur -22.296 -3.72559 -13.51
ltibia 28.6208
lfoot -8.24587 3.14173
ltoes -7.80347
